<svg width="30" height="30" viewBox="0 0 16 16" fill="none" xmlns="http://www.w3.org/2000/svg">
<path fill-rule="evenodd" clip-rule="evenodd" d="M1.33398 7.99967C1.33398 4.31767 4.31865 1.33301 8.00065 1.33301C11.6827 1.33301 14.6673 4.31767 14.6673 7.99967C14.6673 11.6817 11.6827 14.6663 8.00065 14.6663C4.31865 14.6663 1.33398 11.6817 1.33398 7.99967ZM6.86265 9.52834C6.79898 9.58984 6.74819 9.6634 6.71325 9.74474C6.67831 9.82607 6.65992 9.91355 6.65915 10.0021C6.65838 10.0906 6.67525 10.1784 6.70877 10.2603C6.74229 10.3422 6.79179 10.4167 6.85439 10.4793C6.91698 10.5419 6.99142 10.5914 7.07335 10.6249C7.15528 10.6584 7.24307 10.6753 7.33158 10.6745C7.4201 10.6737 7.50758 10.6553 7.58892 10.6204C7.67026 10.5855 7.74382 10.5347 7.80532 10.471L9.80532 8.47101C9.9303 8.34599 10.0005 8.17645 10.0005 7.99967C10.0005 7.8229 9.9303 7.65336 9.80532 7.52834L7.80532 5.52834C7.74382 5.46467 7.67026 5.41388 7.58892 5.37894C7.50758 5.344 7.4201 5.32561 7.33158 5.32484C7.24307 5.32407 7.15528 5.34094 7.07335 5.37446C6.99142 5.40798 6.91698 5.45748 6.85439 5.52008C6.79179 5.58267 6.74229 5.65711 6.70877 5.73904C6.67525 5.82097 6.65838 5.90876 6.65915 5.99728C6.65992 6.08579 6.67831 6.17327 6.71325 6.25461C6.74819 6.33595 6.79898 6.40951 6.86265 6.47101L8.39132 7.99967L6.86265 9.52834Z" fill="#EB5959"/>
</svg>
