<svg width="40" height="40" viewBox="0 0 25 25" fill="none" xmlns="http://www.w3.org/2000/svg">
<path d="M4.16602 18.75C3.5931 18.75 3.10282 18.5462 2.69518 18.1385C2.28754 17.7309 2.08338 17.2403 2.08268 16.6667V5.20833C2.08268 4.63542 2.28685 4.14514 2.69518 3.7375C3.10352 3.32986 3.59379 3.12569 4.16602 3.125H20.8327C21.4056 3.125 21.8962 3.32917 22.3046 3.7375C22.7129 4.14583 22.9167 4.63611 22.916 5.20833V16.6667C22.916 17.2396 22.7122 17.7302 22.3046 18.1385C21.8969 18.5469 21.4063 18.7507 20.8327 18.75H4.16602ZM1.04102 21.875V19.7917H23.9577V21.875H1.04102Z" fill="#404040"/>
</svg>
