<svg width="17" height="17" viewBox="0 0 13 13" fill="none" xmlns="http://www.w3.org/2000/svg">
<path d="M4.87435 2.70868C4.73069 2.70868 4.59292 2.76575 4.49133 2.86733C4.38975 2.96892 4.33268 3.10669 4.33268 3.25035C4.33268 3.39401 4.38975 3.53178 4.49133 3.63337C4.59292 3.73495 4.73069 3.79202 4.87435 3.79202C5.01801 3.79202 5.15578 3.73495 5.25737 3.63337C5.35895 3.53178 5.41602 3.39401 5.41602 3.25035C5.41602 3.10669 5.35895 2.96892 5.25737 2.86733C5.15578 2.76575 5.01801 2.70868 4.87435 2.70868ZM3.34143 2.70868C3.45334 2.39152 3.66087 2.11688 3.93542 1.92261C4.20997 1.72835 4.53802 1.62402 4.87435 1.62402C5.21068 1.62402 5.53872 1.72835 5.81327 1.92261C6.08782 2.11688 6.29536 2.39152 6.40727 2.70868H10.291C10.4347 2.70868 10.5725 2.76575 10.674 2.86733C10.7756 2.96892 10.8327 3.10669 10.8327 3.25035C10.8327 3.39401 10.7756 3.53178 10.674 3.63337C10.5725 3.73495 10.4347 3.79202 10.291 3.79202H6.40727C6.29536 4.10918 6.08782 4.38382 5.81327 4.57809C5.53872 4.77236 5.21068 4.87668 4.87435 4.87668C4.53802 4.87668 4.20997 4.77236 3.93542 4.57809C3.66087 4.38382 3.45334 4.10918 3.34143 3.79202H2.70768C2.56402 3.79202 2.42625 3.73495 2.32467 3.63337C2.22308 3.53178 2.16602 3.39401 2.16602 3.25035C2.16602 3.10669 2.22308 2.96892 2.32467 2.86733C2.42625 2.76575 2.56402 2.70868 2.70768 2.70868H3.34143ZM8.12435 5.95868C7.98069 5.95868 7.84292 6.01575 7.74133 6.11733C7.63975 6.21892 7.58268 6.35669 7.58268 6.50035C7.58268 6.64401 7.63975 6.78178 7.74133 6.88337C7.84292 6.98495 7.98069 7.04202 8.12435 7.04202C8.26801 7.04202 8.40578 6.98495 8.50737 6.88337C8.60895 6.78178 8.66602 6.64401 8.66602 6.50035C8.66602 6.35669 8.60895 6.21892 8.50737 6.11733C8.40578 6.01575 8.26801 5.95868 8.12435 5.95868ZM6.59143 5.95868C6.70334 5.64152 6.91087 5.36688 7.18542 5.17261C7.45997 4.97835 7.78802 4.87402 8.12435 4.87402C8.46068 4.87402 8.78872 4.97835 9.06327 5.17261C9.33782 5.36688 9.54536 5.64152 9.65727 5.95868H10.291C10.4347 5.95868 10.5725 6.01575 10.674 6.11733C10.7756 6.21892 10.8327 6.35669 10.8327 6.50035C10.8327 6.64401 10.7756 6.78178 10.674 6.88337C10.5725 6.98495 10.4347 7.04202 10.291 7.04202H9.65727C9.54536 7.35918 9.33782 7.63382 9.06327 7.82809C8.78872 8.02236 8.46068 8.12668 8.12435 8.12668C7.78802 8.12668 7.45997 8.02236 7.18542 7.82809C6.91087 7.63382 6.70334 7.35918 6.59143 7.04202H2.70768C2.56402 7.04202 2.42625 6.98495 2.32467 6.88337C2.22308 6.78178 2.16602 6.64401 2.16602 6.50035C2.16602 6.35669 2.22308 6.21892 2.32467 6.11733C2.42625 6.01575 2.56402 5.95868 2.70768 5.95868H6.59143ZM4.87435 9.20868C4.73069 9.20868 4.59292 9.26575 4.49133 9.36733C4.38975 9.46892 4.33268 9.60669 4.33268 9.75035C4.33268 9.89401 4.38975 10.0318 4.49133 10.1334C4.59292 10.235 4.73069 10.292 4.87435 10.292C5.01801 10.292 5.15578 10.235 5.25737 10.1334C5.35895 10.0318 5.41602 9.89401 5.41602 9.75035C5.41602 9.60669 5.35895 9.46892 5.25737 9.36733C5.15578 9.26575 5.01801 9.20868 4.87435 9.20868ZM3.34143 9.20868C3.45334 8.89152 3.66087 8.61688 3.93542 8.42261C4.20997 8.22835 4.53802 8.12402 4.87435 8.12402C5.21068 8.12402 5.53872 8.22835 5.81327 8.42261C6.08782 8.61688 6.29536 8.89152 6.40727 9.20868H10.291C10.4347 9.20868 10.5725 9.26575 10.674 9.36733C10.7756 9.46892 10.8327 9.60669 10.8327 9.75035C10.8327 9.89401 10.7756 10.0318 10.674 10.1334C10.5725 10.235 10.4347 10.292 10.291 10.292H6.40727C6.29536 10.6092 6.08782 10.8838 5.81327 11.0781C5.53872 11.2724 5.21068 11.3767 4.87435 11.3767C4.53802 11.3767 4.20997 11.2724 3.93542 11.0781C3.66087 10.8838 3.45334 10.6092 3.34143 10.292H2.70768C2.56402 10.292 2.42625 10.235 2.32467 10.1334C2.22308 10.0318 2.16602 9.89401 2.16602 9.75035C2.16602 9.60669 2.22308 9.46892 2.32467 9.36733C2.42625 9.26575 2.56402 9.20868 2.70768 9.20868H3.34143Z" fill="#A19E9E"/>
</svg>
