<svg width="15" height="15" viewBox="0 0 8 9" fill="none" xmlns="http://www.w3.org/2000/svg">
<path d="M4 4.275C3.62112 4.275 3.25776 4.15647 2.98985 3.9455C2.72194 3.73452 2.57143 3.44837 2.57143 3.15C2.57143 2.85163 2.72194 2.56548 2.98985 2.3545C3.25776 2.14353 3.62112 2.025 4 2.025C4.37888 2.025 4.74224 2.14353 5.01015 2.3545C5.27806 2.56548 5.42857 2.85163 5.42857 3.15C5.42857 3.29774 5.39162 3.44403 5.31983 3.58052C5.24804 3.71701 5.14281 3.84103 5.01015 3.9455C4.8775 4.04996 4.72001 4.13283 4.54669 4.18936C4.37337 4.2459 4.1876 4.275 4 4.275ZM4 0C2.93913 0 1.92172 0.331874 1.17157 0.922614C0.421427 1.51335 0 2.31457 0 3.15C0 5.5125 4 9 4 9C4 9 8 5.5125 8 3.15C8 2.31457 7.57857 1.51335 6.82843 0.922614C6.07828 0.331874 5.06087 0 4 0Z" fill="white"/>
</svg>
