<svg width="40" height="40" viewBox="0 0 20 21" fill="none" xmlns="http://www.w3.org/2000/svg">
<path d="M19.7917 1.04167V3.125C19.7917 5.05887 19.0234 6.91354 17.656 8.28099C16.2885 9.64844 14.4339 10.4167 12.5 10.4167H11.4583V11.4583H16.6667V18.75C16.6667 19.3025 16.4472 19.8324 16.0565 20.2231C15.6658 20.6138 15.1359 20.8333 14.5833 20.8333H6.25C5.69747 20.8333 5.16756 20.6138 4.77686 20.2231C4.38616 19.8324 4.16667 19.3025 4.16667 18.75V11.4583H9.375V8.33334C9.375 6.39947 10.1432 4.5448 11.5107 3.17735C12.8781 1.8099 14.7328 1.04167 16.6667 1.04167H19.7917ZM3.64583 2.56172e-06C4.89581 -0.00101026 6.12773 0.298319 7.23787 0.872788C8.34802 1.44726 9.30389 2.28005 10.025 3.30104C8.92496 4.74781 8.33061 6.51586 8.33333 8.33334V9.375H7.8125C5.7405 9.375 3.75336 8.5519 2.28823 7.08677C0.8231 5.62165 0 3.63451 0 1.5625V2.56172e-06H3.64583Z" fill="#B5B5B5"/>
</svg>
