<svg width="40" height="40" viewBox="0 0 25 25" fill="none" xmlns="http://www.w3.org/2000/svg">
<?xml-stylesheet type="text/css" href="svg.css" ?>
<path d="M7.8125 22.3958V12.8646C6.92708 12.6215 6.18507 12.1354 5.58646 11.4063C4.98785 10.6771 4.68819 9.82639 4.6875 8.85417V1.5625H6.77083V8.85417H7.8125V1.5625H9.89583V8.85417H10.9375V1.5625H13.0208V8.85417C13.0208 9.82639 12.7215 10.6771 12.1229 11.4063C11.5243 12.1354 10.7819 12.6215 9.89583 12.8646V22.3958H7.8125ZM18.2292 22.3958V14.0625H15.1042V6.77083C15.1042 5.32986 15.6122 4.10174 16.6281 3.08646C17.6441 2.07118 18.8722 1.56319 20.3125 1.5625V22.3958H18.2292Z" fill="#B5B5B5"/>
</svg>
