<svg width="40" height="40" viewBox="0 0 25 25" fill="none" xmlns="http://www.w3.org/2000/svg">
<path d="M2.43815 15.2395C3.06315 15.0104 3.70898 14.8958 4.39648 14.8958C5.79232 14.8958 7.01107 15.3333 8.05273 16.2083L4.7819 19.4791C3.69674 18.2566 2.89626 16.8087 2.43815 15.2395ZM16.209 10.2083C18.2611 11.7395 20.4798 12.1145 22.8548 11.3333C22.8861 11.552 22.9173 11.9479 22.9173 12.5C22.9173 13.5729 22.6569 14.7708 22.1673 16.0937C21.6777 17.4062 21.0736 18.4687 20.3652 19.2708L13.7715 12.6979L16.209 10.2083ZM9.13607 17.3333C10.2402 18.927 10.4694 20.6666 9.81315 22.5625C8.33398 22.1354 7.01107 21.4687 5.9069 20.552L9.13607 17.3333ZM12.6986 13.7708L19.2715 20.3645C17.0111 22.3437 14.3548 23.177 11.334 22.8541C11.5527 22.1666 11.6673 21.4166 11.6673 20.6041C11.6673 19.9583 11.5215 19.1979 11.2298 18.3333C10.9382 17.4687 10.5944 16.7604 10.209 16.2083L12.6986 13.7708ZM9.17774 15.1041C8.22847 14.2552 7.06486 13.6824 5.81315 13.4479C4.54232 13.2083 3.32357 13.2812 2.14648 13.677C2.11523 13.4479 2.08398 13.052 2.08398 12.5C2.08398 11.427 2.3444 10.2291 2.83398 8.90621C3.32357 7.59371 3.92773 6.53121 4.63607 5.72913L11.5736 12.6979L9.17774 15.1041ZM16.209 8.05204C14.8132 6.33329 14.4902 4.45829 15.2402 2.43746C15.8861 2.60412 16.6257 2.91662 17.459 3.39579C18.2819 3.86454 18.959 4.33329 19.4798 4.78121L16.209 8.05204ZM22.5632 9.77079C21.9382 9.98954 21.2923 10.1041 20.6048 10.1041C19.4694 10.1041 18.3757 9.77079 17.334 9.08329L20.5527 5.90621C21.4694 7.05204 22.1361 8.33329 22.5632 9.77079ZM12.6986 11.5729L5.72982 4.63537C7.99023 2.65621 10.6465 1.82287 13.6777 2.14579C13.4486 2.83329 13.334 3.58329 13.334 4.39579C13.334 5.14579 13.5007 5.98954 13.8444 6.93746C14.1882 7.87496 14.584 8.62496 15.1048 9.17704L12.6986 11.5729Z" fill="#404040"/>
</svg>
