<?xml version="1.0" standalone="no"?>
<!DOCTYPE svg PUBLIC "-//W3C//DTD SVG 20010904//EN"
 "http://www.w3.org/TR/2001/REC-SVG-20010904/DTD/svg10.dtd">
<svg version="1.0" xmlns="http://www.w3.org/2000/svg"
 width="57.000000pt" height="56.000000pt" viewBox="0 0 57.000000 56.000000"
 preserveAspectRatio="xMidYMid meet">

<g transform="translate(0.000000,56.000000) scale(0.100000,-0.100000)"
fill="#000000" stroke="none">
<path d="M72 467 c-19 -22 -15 -378 4 -397 5 -5 74 -11 154 -13 80 -2 156 -7
170 -11 20 -6 33 0 66 28 52 44 63 80 36 116 -17 22 -20 42 -19 143 0 80 -4
121 -13 132 -10 12 -44 15 -200 15 -142 0 -190 -3 -198 -13z m38 -27 c0 -5 -4
-10 -10 -10 -5 0 -10 5 -10 10 0 6 5 10 10 10 6 0 10 -4 10 -10z m30 0 c0 -5
-4 -10 -10 -10 -5 0 -10 5 -10 10 0 6 5 10 10 10 6 0 10 -4 10 -10z m30 0 c0
-5 -4 -10 -10 -10 -5 0 -10 5 -10 10 0 6 5 10 10 10 6 0 10 -4 10 -10z m-52
-87 c-3 -40 -6 -48 -23 -48 -15 0 -21 8 -23 33 -5 45 3 62 28 62 19 0 21 -5
18 -47z m70 0 c-3 -40 -6 -48 -23 -48 -17 0 -20 8 -23 48 -3 45 -2 47 23 47
25 0 26 -2 23 -47z m70 0 c-3 -40 -6 -48 -23 -48 -17 0 -20 8 -23 48 -3 45 -2
47 23 47 25 0 26 -2 23 -47z m70 0 c-3 -40 -6 -48 -23 -48 -17 0 -20 8 -23 48
-3 45 -2 47 23 47 25 0 26 -2 23 -47z m70 0 c-3 -40 -6 -48 -23 -48 -17 0 -20
8 -23 48 -3 45 -2 47 23 47 25 0 26 -2 23 -47z m67 -3 c0 -38 -3 -45 -20 -45
-17 0 -20 8 -23 48 -3 46 -2 48 20 45 20 -3 23 -9 23 -48z m-68 -161 c8 -8 16
-7 30 2 12 7 31 9 46 5 23 -5 27 -12 27 -40 0 -28 -8 -41 -42 -70 -23 -20 -45
-36 -49 -36 -5 0 -26 17 -49 38 -41 40 -52 76 -28 100 15 15 50 16 65 1z"/>
</g>
</svg>
